
        <svg xmlns="http://www.w3.org/2000/svg" xmlns:xlink="http://www.w3.org/1999/xlink" version="1.1" width="3300" 
        height="2268.7534314162103" viewBox="0 -75 3300 2268.7534314162103">
			
			<g transform="scale(15) translate(10, 10)">
				<defs id="SvgjsDefs1384"></defs><g id="SvgjsG1385" featureKey="symbolFeature-0" transform="matrix(0.191991948139881,0,0,0.191991948139881,51.367163708353665,-20.15306762761538)" fill="#111111"><g xmlns="http://www.w3.org/2000/svg"><path d="M207.2,356.9l-24.6-91.9c-1-3.7-4.8-5.9-8.6-4.9c-3.7,1-5.9,4.8-4.9,8.6l24.6,91.9c0.8,3.1,3.7,5.2,6.8,5.2   c0.6,0,1.2-0.1,1.8-0.2C206,364.4,208.2,360.6,207.2,356.9z"></path><path d="M140.5,276.2c-1-3.7-4.8-5.9-8.6-4.9c-3.7,1-5.9,4.8-4.9,8.6l24.7,91.9c0.8,3.1,3.7,5.2,6.8,5.2c0.6,0,1.2-0.1,1.8-0.2   c3.7-1,5.9-4.8,4.9-8.6L140.5,276.2z"></path><path d="M98.4,287.4c-1-3.7-4.8-5.9-8.6-4.9c-3.7,1-5.9,4.8-4.9,8.6l24.7,91.9c0.8,3.1,3.7,5.2,6.8,5.2c0.6,0,1.2-0.1,1.8-0.2   c3.7-1,5.9-4.8,4.9-8.6L98.4,287.4z"></path><path d="M427.6,405.6l4-14.8l21.6,5.8c1.7,0.5,3.5,0.7,5.2,0.7c9.3,0,17.4-6.2,19.8-15.2l14-52.3c1.4-5.3,0.7-10.8-2.1-15.5   s-7.2-8.1-12.4-9.5l-21.6-5.8l9.4-35.1c3.4-2.9,5.1-6.3,5.9-9.4c2.7-10.2-3.3-21.3-15-28.8c0.9-1.8,1.7-3.6,2.2-5.6   c1.9-6.9,0.9-14.3-2.8-20.6c-3.9-6.8-10.4-11.7-18.1-13.7c-2.6-0.7-5.3-1.1-7.9-1.1c-5.6,0-11.1,1.6-15.7,4.5   c-4.7-2.7-9.9-4.8-15.4-6.3c-5.5-1.5-11.1-2.2-16.6-2.2c-12,0-23.1,3.6-31.1,10c-4.2-0.8-8.4-1.2-12.4-1.2   c-16.4,0-28.4,6.5-31.2,17c-1.5,5.6-0.8,11.2,2,16.6l-37.7,140.6c0,0.1,0,0.1-0.1,0.2l-5.6,21.1l-0.4,1.5c-0.1,0.2-0.1,0.5-0.1,0.7   c0,0.1,0,0.2,0,0.3c0,0.1,0,0.2,0,0.4c0,0.2,0,0.3,0,0.5c0,0.1,0,0.1,0,0.2c0,0.2,0,0.4,0,0.5c0,0,0,0.1,0,0.1   c0,0.2,0.1,0.4,0.1,0.5c0,0,0,0.1,0,0.1c0,0.2,0.1,0.3,0.1,0.5c0,0.1,0,0.1,0.1,0.2c0.1,0.1,0.1,0.3,0.2,0.4c0,0.1,0.1,0.1,0.1,0.2   c0.1,0.1,0.1,0.3,0.2,0.4c0,0.1,0.1,0.1,0.1,0.2c0,0.1,0.1,0.1,0.1,0.2c0.1,0.1,0.2,0.3,0.3,0.4c0,0.1,0.1,0.1,0.1,0.2   c0.1,0.1,0.2,0.2,0.3,0.4c0,0,0.1,0.1,0.1,0.1c0.1,0.1,0.2,0.2,0.4,0.4c0,0,0.1,0.1,0.1,0.1c0.1,0.1,0.3,0.3,0.4,0.4c0,0,0,0,0.1,0   c0.2,0.1,0.3,0.2,0.5,0.3c0,0,0,0,0.1,0c0.2,0.1,0.3,0.2,0.5,0.3c0.1,0,0.1,0,0.2,0.1c0.2,0.1,0.3,0.1,0.5,0.2   c0.2,0.1,0.4,0.2,0.7,0.2l90.9,24.4H150.4l90.9-24.4c1.8-0.5,3.3-1.7,4.3-3.3c0.9-1.6,1.2-3.5,0.7-5.3l-0.8-3.1l-43-160.3   c2.8-5.3,3.5-11,2-16.6c-2.8-10.5-14.8-17-31.3-17c-4,0-8.2,0.4-12.4,1.2c-8-6.4-19.1-10-31.1-10c-5.5,0-11.1,0.7-16.6,2.2   c-5.5,1.5-10.6,3.6-15.4,6.3c-4.6-2.9-10.1-4.5-15.7-4.5c-2.7,0-5.3,0.4-7.9,1.1c-7.8,2.1-14.2,6.9-18.1,13.7   c-3.7,6.4-4.7,13.7-2.8,20.7c0.5,1.9,1.3,3.8,2.2,5.5c-11.7,7.5-17.7,18.6-15,28.8c0.8,3.1,2.6,6.5,5.9,9.4l9.4,35.1l-21.6,5.8   c-5.3,1.4-9.7,4.8-12.4,9.6c-2.7,4.8-3.5,10.3-2.1,15.5l14,52.3c2.4,8.9,10.6,15.2,19.8,15.2c1.8,0,3.5-0.2,5.3-0.7l21.6-5.8   l7.7,28.6H30.5c-3.9,0-7,3.1-7,7s3.1,7,7,7h66.7c0,0,0,0,0,0c0,0,0,0,0,0h317.5c0,0,0,0,0,0c0,0,0,0,0,0h66.7c3.9,0,7-3.1,7-7   s-3.1-7-7-7h-57.6L427.6,405.6C427.6,405.6,427.6,405.6,427.6,405.6z M54,250.8c-1.2-4.5,4-11.8,14.7-16.4c2.2-0.9,3.8-2.9,4.2-5.3   s-0.4-4.8-2.2-6.4c-1.9-1.7-3.2-3.9-3.9-6.3c-0.9-3.3-0.4-6.9,1.4-10c2-3.5,5.5-6.1,9.6-7.2c1.4-0.4,2.8-0.6,4.3-0.6   c3.9,0,7.7,1.5,10.4,4.1c2.4,2.3,6.1,2.6,8.9,0.7c4.6-3.2,9.7-5.6,15.4-7.1c4.3-1.2,8.7-1.7,13-1.7c9.9,0,18.7,3.1,24.2,8.5   c1.7,1.7,4.2,2.4,6.5,1.8c4.4-1,8.7-1.5,12.9-1.5c10.5,0,16.8,3.3,17.7,6.6c0.4,1.6,0.7,4.1-1.6,7.7c-0.1,0.1-0.1,0.2-0.2,0.2   c-0.1,0.2-0.3,0.5-0.6,0.7c-3.1,3.2-13.6,9.9-32.6,17.6c-0.2,0.1-0.4,0.2-0.6,0.2c-0.1,0-0.2,0.1-0.2,0.1c-3.8,1.5-8,3.1-12.4,4.8   c-11.8,4.3-23.5,7.8-34.3,10.4c-13.9,3.3-26.4,5.2-36,5.2c-1.1,0-2.2,0-3.2-0.1c0,0-0.1,0-0.1,0c-0.3,0-0.7,0-1-0.1   c-1.9-0.1-4-0.4-6-0.8c-0.1,0-0.2,0-0.3-0.1c-0.1,0-0.2,0-0.3-0.1c-2.5-0.6-4.1-1.3-5.2-2c0,0,0,0-0.1,0   C55.2,253,54.3,252,54,250.8z M55.2,383c-0.5,0.1-1.1,0.2-1.6,0.2c-2.9,0-5.5-2-6.3-4.8l-14-52.3c-0.4-1.6-0.2-3.4,0.7-4.9   c0.9-1.5,2.3-2.6,3.9-3l21.6-5.8l8.7,32.5l8.7,32.3L55.2,383z M96.1,395.2l-3.9-14.7c0,0,0-0.1,0-0.1L79,331.3l-16.4-61   c1,0.1,2.1,0.3,3.2,0.4c0.3,0,0.7,0.1,1,0.1c0.3,0,0.5,0,0.8,0.1c1.5,0.1,3.1,0.1,4.7,0.1c0,0,0,0,0,0c34.5,0,94.1-20.4,118.6-36.6   l33.9,126.4L96.1,395.2z M99.7,408.7l128.8-34.5l2.4,9.1L188,394.8l-85.9,23L99.7,408.7z M474.2,318.2c1.7,0.4,3,1.5,3.9,3   c0.9,1.5,1.1,3.2,0.7,4.9l-14,52.3c-0.8,2.8-3.4,4.8-6.3,4.8c-0.6,0-1.1-0.1-1.6-0.2l-21.6-5.8l7.1-26.5l10.3-38.2L474.2,318.2z    M321,210.1c0.9-3.3,7.3-6.6,17.7-6.6c4.1,0,8.5,0.5,12.9,1.5c2.3,0.5,4.8-0.2,6.5-1.8c5.5-5.4,14.3-8.5,24.2-8.5   c4.3,0,8.7,0.6,13,1.7c5.7,1.5,10.8,3.9,15.4,7.1c2.7,1.9,6.5,1.6,8.9-0.7c3.7-3.5,9.3-5,14.7-3.5c4.1,1.1,7.6,3.7,9.6,7.2   c1.8,3.1,2.3,6.7,1.4,10c-0.7,2.5-2,4.6-3.9,6.3c-1.8,1.6-2.6,4-2.2,6.4c0.4,2.4,2,4.4,4.2,5.3c10.8,4.6,15.9,11.9,14.7,16.4   c-0.3,1.2-1.2,2.2-2.3,3c0,0,0,0-0.1,0c-1.1,0.7-2.7,1.5-5.2,2c-0.1,0-0.1,0-0.2,0c-0.1,0-0.3,0.1-0.5,0.1c-1.9,0.4-4,0.6-5.8,0.8   c-0.4,0-0.7,0-1.1,0.1c0,0,0,0-0.1,0c-1,0-2.1,0.1-3.3,0.1c0,0,0,0,0,0c-6.4,0-14.1-0.8-22.6-2.3c-14.2-2.6-30.8-7.1-47.7-13.2   c-6.3-2.3-11.9-4.5-16.8-6.6c-0.1,0-0.2-0.1-0.3-0.1c-0.1,0-0.2-0.1-0.3-0.1c-16.4-7-25.6-12.9-28.4-15.9c-0.2-0.3-0.4-0.5-0.6-0.7   c0-0.1-0.1-0.1-0.1-0.2C320.3,214.2,320.6,211.7,321,210.1z M410.4,415.5l-0.6,2.3L302.2,389l-21.2-5.7l2.4-9.1l128.8,34.5   L410.4,415.5z M419.8,380.4c0,0,0,0.1,0,0.1l-3.9,14.7l-128.8-34.5L321,234.3c18.4,12.1,56.5,26.6,89,33.1c0,0,0,0,0,0   c4,0.8,8,1.5,11.8,2c0,0,0.1,0,0.1,0c6.4,0.9,12.4,1.4,17.8,1.4c1.7,0,3.2-0.1,4.7-0.1c0.3,0,0.5,0,0.8-0.1c0.3,0,0.7-0.1,1-0.1   c1.1-0.1,2.2-0.2,3.2-0.4L431.5,337L419.8,380.4z"></path><path d="M338,260c-3.7-1-7.6,1.2-8.6,4.9l-24.7,91.9c-1,3.7,1.2,7.6,4.9,8.6c0.6,0.2,1.2,0.2,1.8,0.2c3.1,0,5.9-2.1,6.8-5.2   l24.7-91.9C344,264.8,341.7,261,338,260z"></path><path d="M380.1,271.2c-3.7-1-7.6,1.2-8.6,4.9l-24.7,91.9c-1,3.7,1.2,7.6,4.9,8.6c0.6,0.2,1.2,0.2,1.8,0.2c3.1,0,5.9-2.1,6.8-5.2   l24.7-91.9C386,276.1,383.8,272.2,380.1,271.2z"></path><path d="M422.2,282.5c-3.7-1-7.6,1.2-8.6,4.9l-24.7,91.9c-1,3.7,1.2,7.6,4.9,8.6c0.6,0.2,1.2,0.2,1.8,0.2c3.1,0,5.9-2.1,6.8-5.2   l24.7-91.9C428.1,287.3,425.9,283.5,422.2,282.5z"></path><path d="M198.6,143.5c0.2,0.2,23.6,17,26.6,41.5c0.4,3.6,3.5,6.2,6.9,6.2c0.3,0,0.6,0,0.9-0.1c3.8-0.5,6.6-4,6.1-7.8   c-3.7-30.5-31.2-50.4-32.4-51.2c-3.2-2.2-7.5-1.5-9.8,1.7C194.7,136.8,195.5,141.2,198.6,143.5z"></path><path d="M272.9,183.3c-0.5,3.8,2.3,7.3,6.1,7.8c0.3,0,0.6,0.1,0.9,0.1c3.5,0,6.5-2.6,6.9-6.2c2.9-24.2,26.2-41.2,26.6-41.5   c3.1-2.2,3.9-6.6,1.6-9.8c-2.2-3.2-6.6-3.9-9.8-1.7C304.1,132.9,276.6,152.7,272.9,183.3z"></path><path d="M263.8,160.3c0.3,0,0.6,0.1,0.9,0.1c3.5,0,6.5-2.6,6.9-6.2c2.9-24.3,26.4-41.3,26.6-41.5c3.1-2.2,3.9-6.6,1.6-9.8   c-2.2-3.2-6.6-3.9-9.8-1.7c-1.2,0.8-28.7,20.7-32.4,51.2C257.2,156.3,260,159.8,263.8,160.3z"></path><path d="M209.7,91.6c0.2,0.2,23.6,17,26.6,41.5c0.4,3.6,3.5,6.2,6.9,6.2c0.3,0,0.6,0,0.9-0.1c3.8-0.5,6.6-4,6.1-7.8   c-3.7-30.5-31.2-50.4-32.4-51.2c-3.2-2.2-7.5-1.5-9.8,1.7C205.8,85,206.5,89.4,209.7,91.6z"></path></g></g><g id="SvgjsG1386" featureKey="nameFeature-0" transform="matrix(1.093116017812507,0,0,1.093116017812507,1.1403232707647175,79.34251897057347)" fill="#111111"><path d="M15.44 17.68 c0.04 4.8 -1.12 10.52 -4.48 14.4 c-0.84 0.96 -3.28 2.04 -4.36 1.6 c-0.48 3 -0.96 5.68 -1 8.8 c-0.76 0.16 -3.24 -0.4 -3.76 -1.56 c-1.52 -0.44 -2.96 -1.36 -2.88 -2.6 c0.68 -7.52 1.92 -13.52 3.48 -20.8 c0.12 -0.64 0.84 -1.28 1.28 -1.72 c-0.6 0.16 -1.32 0.44 -3.12 0.96 c0.6 -2.04 0.92 -4.32 2 -6.2 c1.04 -1.84 4.88 -2.6 7.28 -2 c2 0.48 3.24 2.16 3.84 4.04 c1.2 1.24 1.72 3.28 1.72 5.08 z M13.24 15.68 c-0.04 -2.64 -1.2 -5.6 -3.6 -6.16 c-2.24 -0.56 -5.48 0.28 -6.2 1.52 c-0.72 1.32 -1.04 2.8 -1.4 4.28 c0.64 -0.24 2.6 -1.12 2.96 -0.16 c0.32 0.92 -1.48 1.96 -1.6 2.56 c-1.56 7.24 -2.76 13.2 -3.44 20.68 c-0.08 1.2 2.4 2 3.44 1.92 c0.04 -3.08 0.52 -5.72 1.04 -8.92 c1.2 0.48 3.52 -0.52 4.36 -1.44 c3.32 -3.84 4.48 -9.48 4.44 -14.28 z M9.16 14.920000000000002 c1.52 3.08 0.08 7.68 -1.44 10.88 c-0.28 0.6 -1.36 1.64 -2.36 1.24 c0.68 -4.16 1.28 -8.12 2.28 -12 c0.4 -0.48 1.24 -0.64 1.52 -0.12 z M29.48 11.559999999999999 c0.32 0.08 -0.2 4.08 -1.44 5.4 c-0.52 0.56 -2.28 0.08 -3.24 0.64 c-0.72 2.84 -1.88 9.44 -2.56 15.04 c0.48 -0.12 1.04 -0.28 1.64 -0.48 c0.28 1.2 0.28 2.36 0.12 3.36 c0.6 -0.12 1.04 -0.24 1.32 -0.36 c0.4 1.92 -0.52 4.32 -1.28 5 c-1.32 1.24 -7.08 2.48 -8.84 2.36 c-0.56 -0.08 -0.76 -0.52 -0.76 -1.24 c-0.52 0.04 -1 0.04 -1.32 0.04 c-2.08 -0.2 -1.64 -2.68 -0.6 -6.76 c0.72 0 1.56 -0.12 2.72 -0.36 c0.36 -5.6 1.52 -9.6 2.48 -15.36 c-0.32 0.08 -0.6 0.16 -0.76 0.24 c-0.08 -0.4 -0.04 -1.24 0.2 -2.12 c-0.96 0.4 -2.04 0.92 -2.88 1.2 c-0.28 -2.08 0.2 -5.6 2.36 -7.12 c1.92 -1.28 8.6 -2.44 11.6 -2.32 c0.16 0.48 0.16 1.36 -0.04 2.88 c0.48 -0.04 0.92 -0.04 1.28 -0.04 z M27.44 9.760000000000002 c-2.84 -0.08 -8.56 1 -10.24 2.12 c-1.6 1.08 -2.12 3.8 -2.08 4.92 c1.44 -0.44 5.24 -1.44 5.44 -0.72 c0.28 0.96 -1.68 2 -1.8 2.76 c-1 6.04 -2.24 10.08 -2.56 16.2 c-1.36 0.28 -2.44 0.48 -2.92 0.52 c-0.68 2.68 -1.2 4.64 -0.04 4.76 c1.68 0.12 7.4 -1.12 8.68 -2.32 c0.68 -0.6 1.52 -2.76 1.24 -4.56 c-0.64 0.16 -1.88 0.48 -3.56 0.84 c0.64 -6.32 2.12 -15.28 3 -18.8 c0.64 -0.36 1.28 -0.36 2 -0.4 c0.56 0 1.08 0 1.32 -0.24 c0.56 -0.64 1 -1.92 1.24 -3.08 c0.2 -1.04 0.44 -1.92 0.28 -2 z M46.08 11.2 c-2.84 5.44 -5.24 22.48 -5.8 28.52 c-0.6 1.48 -2.96 2.64 -4.44 2.28 c-0.12 -0.44 -0.24 -0.88 -0.36 -1.36 c-0.76 0.2 -1.56 0.2 -2.28 0.04 c-0.52 -1.8 -0.96 -3.88 -1.28 -6.04 c-0.24 1.92 -0.4 3.84 -0.32 5.8 c-0.96 1.24 -4.44 2.6 -4.4 1.28 l0 -0.92 c-1.6 0.52 -2.84 0 -2.8 -1.08 c0.16 -9.04 2.24 -18.24 3.96 -27.08 c0.4 -2.08 5.68 -3.92 7.2 -2.48 c-0.08 0.76 -0.12 1.48 -0.16 2.2 c0.64 -0.08 1.12 -0.08 1.32 0.12 c-0.16 1.76 -0.2 3.44 -0.12 5.12 c0.44 -2.56 1 -5.12 1.88 -7.6 c1.48 -1.2 3.84 -1.76 6.84 -1.52 c-0.4 0.8 -0.8 1.72 -1.16 2.8 c0.64 -0.12 1.32 -0.16 1.92 -0.08 z M43.760000000000005 9.36 c-1.56 -0.04 -3.44 0.48 -4.44 1.24 c-1.56 4.36 -1.8 9.08 -2.88 13.56 c-0.16 0.52 -0.96 0.8 -1.04 0.24 c-0.76 -4.4 -1.28 -9 -0.88 -13.84 c-0.8 -0.4 -4.92 0.88 -5.2 2.28 c-0.72 3.72 -1.64 8.32 -2.44 13.08 c-0.76 4.72 -1.4 9.6 -1.48 13.8 c0 0.56 0.72 0.4 1.56 0.12 c0.96 -0.32 1.96 -0.92 2.44 -1.48 c-0.2 -4.36 0.84 -8.64 1.44 -12.92 c0.08 -0.72 0.88 -0.96 0.96 -0.16 c0.44 4.4 1.04 10.6 2.2 14.56 c1.4 0.24 3.52 -0.84 4.08 -2.16 c0.56 -5.96 2.88 -22.52 5.68 -28.32 z M60.52000000000001 11.239999999999998 c0.16 1.04 -0.36 4.4 -1.64 4.96 c-1.04 0.44 -2.88 -0.04 -4.16 0.52 c-2.2 9.52 -3.28 15.52 -4.04 26.08 c-0.92 0.4 -2.92 -0.32 -3.8 -1.4 c-1.76 -0.4 -3.48 -1.68 -3.28 -3.28 c0.32 -2.72 1.92 -15.28 3.6 -19.92 c-0.48 0.16 -0.88 0.28 -1.2 0.36 c0 -0.6 0.08 -1.24 0.2 -1.88 c-0.88 0.28 -1.88 0.6 -3 0.92 c0 -3 0.76 -5.36 1.96 -6.56 c1.48 -1.52 11.24 -3.12 14.08 -2.44 c0.08 0.6 0.08 1.56 -0.08 2.6 c0.6 -0.04 1.08 -0.04 1.36 0.04 z M58.32000000000001 9.399999999999999 c-1.48 -0.2 -3.84 0.24 -5.36 0.4 c-1.96 0.24 -6.32 1.16 -7.08 1.96 c-0.92 0.88 -1.6 2.8 -1.68 4.52 c0.88 -0.24 5.48 -1.92 5.92 -1 c0.28 0.6 -0.68 1.32 -1.08 1.72 c-0.36 0.36 -0.68 0.72 -0.8 1.2 c-1.76 6.68 -2.84 13.16 -3.64 20.04 c-0.16 1.32 2.68 2.8 3.88 2.4 c0.76 -10.48 1.84 -16.48 4.08 -26.08 c1.44 -0.64 3.2 -0.08 4.24 -0.56 c1.08 -0.44 1.64 -3.44 1.52 -4.6 z M70.84 11.760000000000002 c-1.28 9.48 -2.4 19.6 -1.84 29 c-0.72 1 -4.16 2 -4.44 0.88 c-0.08 -0.28 -0.12 -0.64 -0.12 -1.08 c-1.28 0.16 -2.48 0 -2.64 -0.72 c-0.2 -0.84 -0.24 -2.2 -0.16 -3.64 c-0.16 0.04 -0.32 0.12 -0.48 0.2 c-0.4 0.96 -0.84 3 -0.8 4.56 c-1.28 0.84 -3.56 2.08 -4.32 1.4 c-0.2 -0.16 -0.24 -0.72 -0.16 -1.4 c-1.04 0.32 -1.92 0.4 -2.4 0 c-0.92 -0.8 0 -4.32 0.24 -5.44 c1.2 -5.6 3 -11.8 4.8 -17.28 c0.12 -0.48 0.76 -1 1.16 -1.32 c-0.68 0.24 -1.56 0.56 -3.08 1.16 c0.16 -2.52 1.4 -5.92 2.44 -6.84 c1.8 -1.56 6.88 -2.76 10.68 -2.16 c-0.12 0.88 -0.24 1.72 -0.32 2.56 c0.48 0 1 0.04 1.44 0.12 z M68.60000000000001 9.920000000000002 c-2.84 -0.4 -7.44 0.8 -8.88 2.08 c-0.72 0.6 -1.76 3.28 -2 4.56 c0.48 -0.16 3.84 -1.6 3.92 -0.32 c0.04 0.6 -2.04 1.92 -2.2 2.32 c-1.76 5.44 -3.52 11.6 -4.72 17.2 c-0.2 0.76 -0.44 1.8 -0.56 2.72 c-0.12 0.84 -0.24 1.56 0 1.72 c0.72 0.64 2.76 -0.56 4 -1.36 c0 -1.56 0.4 -3.56 0.84 -4.56 c1.08 -0.56 2.44 -0.96 3.88 -0.88 c-0.28 2.48 -0.4 5.08 -0.12 6.2 c0.28 1 3.28 0 4.04 -0.92 c-0.56 -9.32 0.52 -19.32 1.8 -28.76 z M64.12 17.72 c-0.28 3.52 -0.76 7.52 -1.2 11.04 c-0.76 0.08 -2.12 0.32 -3.08 0.68 c0.8 -3.92 2.16 -8.16 3.72 -11.72 c0.12 -0.28 0.6 -0.36 0.56 0 z M82.96000000000001 17.52 c-3.48 1.92 -7.08 5.72 -6.4 8.8 c1.04 1.32 2.24 2.44 2.68 4.04 c0.88 1.36 1.68 2.68 1.16 4.6 c-0.8 3.12 -3.28 6.76 -6.56 7.4 c-0.8 0.12 -1.48 -0.4 -2 -1.2 c-2.04 0.2 -3.64 -3 -4 -5.44 c2.8 -0.92 4.56 -2.08 5.08 -4 c0.52 -1.76 -0.92 -2.32 -1.92 -3.32 c-1.16 -1.08 -1.76 -2.32 -1.92 -3.92 c-0.48 -5.48 5.28 -12.52 10.88 -16.56 c0.76 0.52 1.52 1.68 2.04 3 c1.4 1 2.68 5.64 0.96 6.6 z M80.88000000000001 15.36 c1.44 -0.8 0.4 -5.12 -0.92 -6.2 c-5.04 3.68 -10.32 10.36 -9.88 15.24 c0.16 1.92 1.04 2.8 2.36 3.96 c1.04 0.88 2 1.72 1.44 3.64 c-0.64 2.36 -2.76 3.64 -4.92 4.4 c0.28 1.56 1.4 4.04 2.84 3.76 c3.16 -0.6 5.6 -4.16 6.44 -7.24 c0.88 -3.44 -2.36 -5.16 -3.64 -7.84 c-1.56 -3.32 2.52 -7.68 6.28 -9.72 z M104.08000000000001 17.68 c0.04 4.8 -1.12 10.52 -4.48 14.4 c-0.84 0.96 -3.28 2.04 -4.36 1.6 c-0.48 3 -0.96 5.68 -1 8.8 c-0.76 0.16 -3.24 -0.4 -3.76 -1.56 c-1.52 -0.44 -2.96 -1.36 -2.88 -2.6 c0.68 -7.52 1.92 -13.52 3.48 -20.8 c0.12 -0.64 0.84 -1.28 1.28 -1.72 c-0.6 0.16 -1.32 0.44 -3.12 0.96 c0.6 -2.04 0.92 -4.32 2 -6.2 c1.04 -1.84 4.88 -2.6 7.28 -2 c2 0.48 3.24 2.16 3.84 4.04 c1.2 1.24 1.72 3.28 1.72 5.08 z M101.88000000000001 15.68 c-0.04 -2.64 -1.2 -5.6 -3.6 -6.16 c-2.24 -0.56 -5.48 0.28 -6.2 1.52 c-0.72 1.32 -1.04 2.8 -1.4 4.28 c0.64 -0.24 2.6 -1.12 2.96 -0.16 c0.32 0.92 -1.48 1.96 -1.6 2.56 c-1.56 7.24 -2.76 13.2 -3.44 20.68 c-0.08 1.2 2.4 2 3.44 1.92 c0.04 -3.08 0.52 -5.72 1.04 -8.92 c1.2 0.48 3.52 -0.52 4.36 -1.44 c3.32 -3.84 4.48 -9.48 4.44 -14.28 z M97.80000000000001 14.920000000000002 c1.52 3.08 0.08 7.68 -1.44 10.88 c-0.28 0.6 -1.36 1.64 -2.36 1.24 c0.68 -4.16 1.28 -8.12 2.28 -12 c0.4 -0.48 1.24 -0.64 1.52 -0.12 z M117.00000000000003 11.760000000000002 c-1.28 9.48 -2.4 19.6 -1.84 29 c-0.72 1 -4.16 2 -4.44 0.88 c-0.08 -0.28 -0.12 -0.64 -0.12 -1.08 c-1.28 0.16 -2.48 0 -2.64 -0.72 c-0.2 -0.84 -0.24 -2.2 -0.16 -3.64 c-0.16 0.04 -0.32 0.12 -0.48 0.2 c-0.4 0.96 -0.84 3 -0.8 4.56 c-1.28 0.84 -3.56 2.08 -4.32 1.4 c-0.2 -0.16 -0.24 -0.72 -0.16 -1.4 c-1.04 0.32 -1.92 0.4 -2.4 0 c-0.92 -0.8 0 -4.32 0.24 -5.44 c1.2 -5.6 3 -11.8 4.8 -17.28 c0.12 -0.48 0.76 -1 1.16 -1.32 c-0.68 0.24 -1.56 0.56 -3.08 1.16 c0.16 -2.52 1.4 -5.92 2.44 -6.84 c1.8 -1.56 6.88 -2.76 10.68 -2.16 c-0.12 0.88 -0.24 1.72 -0.32 2.56 c0.48 0 1 0.04 1.44 0.12 z M114.76000000000002 9.920000000000002 c-2.84 -0.4 -7.44 0.8 -8.88 2.08 c-0.72 0.6 -1.76 3.28 -2 4.56 c0.48 -0.16 3.84 -1.6 3.92 -0.32 c0.04 0.6 -2.04 1.92 -2.2 2.32 c-1.76 5.44 -3.52 11.6 -4.72 17.2 c-0.2 0.76 -0.44 1.8 -0.56 2.72 c-0.12 0.84 -0.24 1.56 0 1.72 c0.72 0.64 2.76 -0.56 4 -1.36 c0 -1.56 0.4 -3.56 0.84 -4.56 c1.08 -0.56 2.44 -0.96 3.88 -0.88 c-0.28 2.48 -0.4 5.08 -0.12 6.2 c0.28 1 3.28 0 4.04 -0.92 c-0.56 -9.32 0.52 -19.32 1.8 -28.76 z M110.28000000000003 17.72 c-0.28 3.52 -0.76 7.52 -1.2 11.04 c-0.76 0.08 -2.12 0.32 -3.08 0.68 c0.8 -3.92 2.16 -8.16 3.72 -11.72 c0.12 -0.28 0.6 -0.36 0.56 0 z M135.28000000000003 11.2 c-2.84 5.44 -5.24 22.48 -5.8 28.52 c-0.6 1.48 -2.96 2.64 -4.44 2.28 c-0.12 -0.44 -0.24 -0.88 -0.36 -1.36 c-0.76 0.2 -1.56 0.2 -2.28 0.04 c-0.52 -1.8 -0.96 -3.88 -1.28 -6.04 c-0.24 1.92 -0.4 3.84 -0.32 5.8 c-0.96 1.24 -4.44 2.6 -4.4 1.28 l0 -0.92 c-1.6 0.52 -2.84 0 -2.8 -1.08 c0.16 -9.04 2.24 -18.24 3.96 -27.08 c0.4 -2.08 5.68 -3.92 7.2 -2.48 c-0.08 0.76 -0.12 1.48 -0.16 2.2 c0.64 -0.08 1.12 -0.08 1.32 0.12 c-0.16 1.76 -0.2 3.44 -0.12 5.12 c0.44 -2.56 1 -5.12 1.88 -7.6 c1.48 -1.2 3.84 -1.76 6.84 -1.52 c-0.4 0.8 -0.8 1.72 -1.16 2.8 c0.64 -0.12 1.32 -0.16 1.92 -0.08 z M132.96000000000004 9.36 c-1.56 -0.04 -3.44 0.48 -4.44 1.24 c-1.56 4.36 -1.8 9.08 -2.88 13.56 c-0.16 0.52 -0.96 0.8 -1.04 0.24 c-0.76 -4.4 -1.28 -9 -0.88 -13.84 c-0.8 -0.4 -4.92 0.88 -5.2 2.28 c-0.72 3.72 -1.64 8.32 -2.44 13.08 c-0.76 4.72 -1.4 9.6 -1.48 13.8 c0 0.56 0.72 0.4 1.56 0.12 c0.96 -0.32 1.96 -0.92 2.44 -1.48 c-0.2 -4.36 0.84 -8.64 1.44 -12.92 c0.08 -0.72 0.88 -0.96 0.96 -0.16 c0.44 4.4 1.04 10.6 2.2 14.56 c1.4 0.24 3.52 -0.84 4.08 -2.16 c0.56 -5.96 2.88 -22.52 5.68 -28.32 z M146.44000000000003 11.760000000000002 c-1.28 9.48 -2.4 19.6 -1.84 29 c-0.72 1 -4.16 2 -4.44 0.88 c-0.08 -0.28 -0.12 -0.64 -0.12 -1.08 c-1.28 0.16 -2.48 0 -2.64 -0.72 c-0.2 -0.84 -0.24 -2.2 -0.16 -3.64 c-0.16 0.04 -0.32 0.12 -0.48 0.2 c-0.4 0.96 -0.84 3 -0.8 4.56 c-1.28 0.84 -3.56 2.08 -4.32 1.4 c-0.2 -0.16 -0.24 -0.72 -0.16 -1.4 c-1.04 0.32 -1.92 0.4 -2.4 0 c-0.92 -0.8 0 -4.32 0.24 -5.44 c1.2 -5.6 3 -11.8 4.8 -17.28 c0.12 -0.48 0.76 -1 1.16 -1.32 c-0.68 0.24 -1.56 0.56 -3.08 1.16 c0.16 -2.52 1.4 -5.92 2.44 -6.84 c1.8 -1.56 6.88 -2.76 10.68 -2.16 c-0.12 0.88 -0.24 1.72 -0.32 2.56 c0.48 0 1 0.04 1.44 0.12 z M144.20000000000005 9.920000000000002 c-2.84 -0.4 -7.44 0.8 -8.88 2.08 c-0.72 0.6 -1.76 3.28 -2 4.56 c0.48 -0.16 3.84 -1.6 3.92 -0.32 c0.04 0.6 -2.04 1.92 -2.2 2.32 c-1.76 5.44 -3.52 11.6 -4.72 17.2 c-0.2 0.76 -0.44 1.8 -0.56 2.72 c-0.12 0.84 -0.24 1.56 0 1.72 c0.72 0.64 2.76 -0.56 4 -1.36 c0 -1.56 0.4 -3.56 0.84 -4.56 c1.08 -0.56 2.44 -0.96 3.88 -0.88 c-0.28 2.48 -0.4 5.08 -0.12 6.2 c0.28 1 3.28 0 4.04 -0.92 c-0.56 -9.32 0.52 -19.32 1.8 -28.76 z M139.72000000000003 17.72 c-0.28 3.52 -0.76 7.52 -1.2 11.04 c-0.76 0.08 -2.12 0.32 -3.08 0.68 c0.8 -3.92 2.16 -8.16 3.72 -11.72 c0.12 -0.28 0.6 -0.36 0.56 0 z M169.28000000000003 11.440000000000001 c-1.44 8.2 -3.56 19.68 -4 28.36 c-0.56 1.12 -3.28 2.44 -4.4 2.2 c0 -0.56 0.04 -1.12 0.12 -1.68 c-1 0.36 -2.08 0.52 -2.96 0.32 l0.04 -0.8 c-0.16 0.6 -0.28 1.2 -0.4 1.76 c-0.96 0 -2.32 -0.32 -3.16 -1.4 c-2.32 -0.52 -3.32 -2.12 -3.8 -4.16 c-0.44 2.4 -0.72 4.76 -0.64 6.68 c-0.96 -0.2 -2.16 -0.48 -3.08 -1.48 c-1.52 -0.48 -2.76 -1.24 -3.64 -3.04 c0.72 -9.52 2.32 -16.72 4.36 -25.56 c0.64 -2.8 6.48 -3.8 7.84 -2.48 c-0.04 0.68 -0.08 1.4 -0.16 2.12 c0.68 -0.04 1.16 0 1.36 0.2 c-0.2 2.48 -0.44 5.48 -0.48 8.4 c1.32 -3.8 2.84 -7.96 4.2 -10.96 c1.72 -1.04 5.4 -2.44 7.68 -0.84 l-0.36 1.96 c0.6 0.04 1.12 0.12 1.48 0.4 z M161.28000000000003 10.600000000000001 c-1.92 4.28 -4.44 11.24 -5.76 15.76 c-0.16 0.6 -0.92 0.92 -1.08 0.12 c-0.68 -4.12 -0.32 -11.08 0.12 -15.92 c-0.84 -0.44 -5.44 0.36 -5.88 2.28 c-2 8.8 -3.6 15.96 -4.28 25.16 c0.84 1.72 2.28 2.24 3.48 2.48 c-0.08 -2.16 0.32 -4.8 0.8 -7.4 c0.48 -2.72 0.96 -5.4 1.36 -7.56 c0.24 -1.12 0.8 -1.32 0.84 -0.8 c0.4 2.88 0.28 5.12 0.36 7.12 c0.12 2 0.28 3.76 0.88 5.28 c0.64 1.68 2.24 2.24 3.4 2.28 c0.88 -4.16 2.52 -9.52 4.16 -13.8 c0.28 -0.76 1.08 -1.2 1 -0.4 c-0.52 5 -1.36 10.36 -1.6 14.64 c1.12 0.04 3.48 -1.12 4 -2.12 c0.44 -8.6 2.52 -20 3.96 -28.2 c-1.28 -0.72 -4.24 0.16 -5.76 1.08 z M181.92000000000002 11.760000000000002 c-1.28 9.48 -2.4 19.6 -1.84 29 c-0.72 1 -4.16 2 -4.44 0.88 c-0.08 -0.28 -0.12 -0.64 -0.12 -1.08 c-1.28 0.16 -2.48 0 -2.64 -0.72 c-0.2 -0.84 -0.24 -2.2 -0.16 -3.64 c-0.16 0.04 -0.32 0.12 -0.48 0.2 c-0.4 0.96 -0.84 3 -0.8 4.56 c-1.28 0.84 -3.56 2.08 -4.32 1.4 c-0.2 -0.16 -0.24 -0.72 -0.16 -1.4 c-1.04 0.32 -1.92 0.4 -2.4 0 c-0.92 -0.8 0 -4.32 0.24 -5.44 c1.2 -5.6 3 -11.8 4.8 -17.28 c0.12 -0.48 0.76 -1 1.16 -1.32 c-0.68 0.24 -1.56 0.56 -3.08 1.16 c0.16 -2.52 1.4 -5.92 2.44 -6.84 c1.8 -1.56 6.88 -2.76 10.68 -2.16 c-0.12 0.88 -0.24 1.72 -0.32 2.56 c0.48 0 1 0.04 1.44 0.12 z M179.68000000000004 9.920000000000002 c-2.84 -0.4 -7.44 0.8 -8.88 2.08 c-0.72 0.6 -1.76 3.28 -2 4.56 c0.48 -0.16 3.84 -1.6 3.92 -0.32 c0.04 0.6 -2.04 1.92 -2.2 2.32 c-1.76 5.44 -3.52 11.6 -4.72 17.2 c-0.2 0.76 -0.44 1.8 -0.56 2.72 c-0.12 0.84 -0.24 1.56 0 1.72 c0.72 0.64 2.76 -0.56 4 -1.36 c0 -1.56 0.4 -3.56 0.84 -4.56 c1.08 -0.56 2.44 -0.96 3.88 -0.88 c-0.28 2.48 -0.4 5.08 -0.12 6.2 c0.28 1 3.28 0 4.04 -0.92 c-0.56 -9.32 0.52 -19.32 1.8 -28.76 z M175.20000000000002 17.72 c-0.28 3.52 -0.76 7.52 -1.2 11.04 c-0.76 0.08 -2.12 0.32 -3.08 0.68 c0.8 -3.92 2.16 -8.16 3.72 -11.72 c0.12 -0.28 0.6 -0.36 0.56 0 z"></path></g>
			</g>
		</svg>
	